<svg width="90" height="90" viewBox="0 0 90 90" fill="none" xmlns="http://www.w3.org/2000/svg">
<rect width="90" height="90" rx="16" fill="url(#paint0_linear_108_4)"/>
<path d="M45 19C30.6404 19 19 30.6404 19 45C19 59.3596 30.6404 71 45 71C59.3596 71 71 59.3596 71 45C71 30.6404 59.3596 19 45 19ZM45 20.5294C58.5154 20.5294 69.4706 31.4846 69.4706 45C69.4706 56.189 61.9536 65.6044 51.7001 68.5207C51.4917 68.2053 51.3399 67.8378 51.3506 67.4065C51.3919 65.7899 51.3506 62.0218 51.3506 60.6376C51.3506 58.2625 49.8481 56.5781 49.8481 56.5781C49.8481 56.5781 61.6383 56.7117 61.6383 44.1307C61.6383 39.2764 59.1052 36.7495 59.1052 36.7495C59.1052 36.7495 60.4362 31.5661 58.6422 29.3683C56.6311 29.1512 53.0281 31.291 51.491 32.2898C51.491 32.2898 49.0575 31.292 45.003 31.292C40.9485 31.292 38.5119 32.2898 38.5119 32.2898C36.9734 31.291 33.3719 29.1512 31.3608 29.3683C29.5668 31.5661 30.8977 36.7495 30.8977 36.7495C30.8977 36.7495 28.3617 39.2734 28.3617 44.1278C28.3617 56.7087 40.1519 56.5751 40.1519 56.5751C40.1519 56.5751 38.9647 57.9131 38.7031 59.8819C37.8898 60.1702 36.7649 60.5182 35.6921 60.5182C33.1334 60.5182 31.1893 58.0299 30.4766 56.8798C29.773 55.745 28.3319 54.7918 26.9876 54.7918C26.1021 54.7918 25.6673 55.2355 25.6673 55.7417C25.6673 56.248 26.9086 56.5995 27.7284 57.537C29.4566 59.5145 29.4258 63.9653 35.5786 63.9653C36.3038 63.9653 37.606 63.8006 38.6494 63.6576C38.6426 65.1017 38.6265 66.5097 38.6494 67.4035C38.6602 67.8354 38.5088 68.205 38.2999 68.5207C28.0464 65.6044 20.5294 56.189 20.5294 45C20.5294 31.4846 31.4846 20.5294 45 20.5294Z" fill="white"/>
<defs>
<linearGradient id="paint0_linear_108_4" x1="31.6837" y1="5.13876e-07" x2="101.48" y2="100.102" gradientUnits="userSpaceOnUse">
<stop stop-color="#0097D1"/>
<stop offset="0.182292" stop-color="#00A2B3"/>
<stop offset="0.515625" stop-color="#00536C"/>
<stop offset="0.979167" stop-color="#004040"/>
</linearGradient>
</defs>
</svg>
