<svg width="90" height="90" viewBox="0 0 90 90" fill="none" xmlns="http://www.w3.org/2000/svg">
<rect width="90" height="90" rx="16" fill="url(#paint0_linear_108_2)"/>
<path d="M32.1387 34.3008V66H24.375V34.3008H32.1387ZM23.8477 26.0098C23.8477 24.8574 24.2383 23.9004 25.0195 23.1387C25.8203 22.377 26.8945 21.9961 28.2422 21.9961C29.5898 21.9961 30.6543 22.377 31.4355 23.1387C32.2363 23.9004 32.6367 24.8574 32.6367 26.0098C32.6367 27.1426 32.2363 28.0898 31.4355 28.8516C30.6543 29.6133 29.5898 29.9941 28.2422 29.9941C26.8945 29.9941 25.8203 29.6133 25.0195 28.8516C24.2383 28.0898 23.8477 27.1426 23.8477 26.0098ZM47.1094 41.0684V66H39.375V34.3008H46.6406L47.1094 41.0684ZM45.8789 49.0078H43.5938C43.6133 46.7031 43.9258 44.6133 44.5312 42.7383C45.1367 40.8633 45.9863 39.252 47.0801 37.9043C48.1934 36.5566 49.5117 35.5215 51.0352 34.7988C52.5586 34.0762 54.2578 33.7148 56.1328 33.7148C57.6562 33.7148 59.0332 33.9297 60.2637 34.3594C61.4941 34.7891 62.5488 35.4727 63.4277 36.4102C64.3262 37.3477 65.0098 38.5781 65.4785 40.1016C65.9668 41.6055 66.2109 43.4609 66.2109 45.668V66H58.418V45.6094C58.418 44.1641 58.2031 43.0215 57.7734 42.1816C57.3633 41.3418 56.7578 40.7461 55.957 40.3945C55.1758 40.043 54.209 39.8672 53.0566 39.8672C51.8652 39.8672 50.8203 40.1113 49.9219 40.5996C49.043 41.0684 48.3008 41.7227 47.6953 42.5625C47.1094 43.4023 46.6602 44.3691 46.3477 45.4629C46.0352 46.5566 45.8789 47.7383 45.8789 49.0078Z" fill="white"/>
<defs>
<linearGradient id="paint0_linear_108_2" x1="31.6837" y1="5.13876e-07" x2="101.48" y2="100.102" gradientUnits="userSpaceOnUse">
<stop stop-color="#0097D1"/>
<stop offset="0.182292" stop-color="#00A2B3"/>
<stop offset="0.515625" stop-color="#00536C"/>
<stop offset="0.979167" stop-color="#004040"/>
</linearGradient>
</defs>
</svg>
